<?xml version="1.0" encoding="UTF-8" standalone="no"?>
<!-- Created with Inkscape (http://www.inkscape.org/) -->

<svg
   width="1200"
   height="600"
   viewBox="0 0 317.49999 158.75"
   version="1.1"
   id="svg47600"
   xml:space="preserve"
   inkscape:version="1.2.2 (b0a8486541, 2022-12-01)"
   sodipodi:docname="fix-kraft-logo-blue-bg.svg"
   xmlns:inkscape="http://www.inkscape.org/namespaces/inkscape"
   xmlns:sodipodi="http://sodipodi.sourceforge.net/DTD/sodipodi-0.dtd"
   xmlns="http://www.w3.org/2000/svg"
   xmlns:svg="http://www.w3.org/2000/svg"><sodipodi:namedview
     id="namedview47602"
     pagecolor="#ffffff"
     bordercolor="#999999"
     borderopacity="1"
     inkscape:showpageshadow="0"
     inkscape:pageopacity="0"
     inkscape:pagecheckerboard="0"
     inkscape:deskcolor="#d1d1d1"
     inkscape:document-units="mm"
     showgrid="true"
     inkscape:zoom="0.69931958"
     inkscape:cx="459.73258"
     inkscape:cy="418.2637"
     inkscape:window-width="1920"
     inkscape:window-height="1011"
     inkscape:window-x="0"
     inkscape:window-y="0"
     inkscape:window-maximized="1"
     inkscape:current-layer="layer1-1"><inkscape:grid
       type="xygrid"
       id="grid48084" /></sodipodi:namedview><defs
     id="defs47597"><clipPath
       clipPathUnits="userSpaceOnUse"
       id="clipPath9689"><rect
         style="fill:#ff6600;fill-opacity:1;stroke:none;stroke-width:2.70047;stroke-dasharray:none;stroke-opacity:1"
         id="rect9691"
         width="31.967106"
         height="31.129135"
         x="62.462196"
         y="100.84161"
         transform="rotate(-12.669759)" /></clipPath><clipPath
       clipPathUnits="userSpaceOnUse"
       id="clipPath14066"><rect
         style="fill:#ff6600;fill-opacity:1;stroke:none;stroke-width:2.00455;stroke-dasharray:none;stroke-opacity:1"
         id="rect14068"
         width="36.146263"
         height="28.044687"
         x="16.646235"
         y="58.619816"
         transform="matrix(0.95115026,-0.30872834,0.21125917,0.97743008,0,0)" /></clipPath><clipPath
       clipPathUnits="userSpaceOnUse"
       id="clipPath35541"><rect
         style="opacity:1;fill:#005900;fill-opacity:1;stroke:none;stroke-width:1.16683;stroke-dasharray:none;stroke-opacity:1"
         id="rect35543"
         width="27.828407"
         height="35.93726"
         x="-24.595236"
         y="65.032616"
         transform="matrix(0.71919698,-0.69480623,0.71670656,0.69737486,0,0)" /></clipPath><clipPath
       clipPathUnits="userSpaceOnUse"
       id="clipPath35545"><rect
         style="opacity:1;fill:#005900;fill-opacity:1;stroke:none;stroke-width:1.16683;stroke-dasharray:none;stroke-opacity:1"
         id="rect35547"
         width="27.828407"
         height="35.93726"
         x="48.579819"
         y="82.305931"
         transform="matrix(0.71919698,-0.69480623,0.71670656,0.69737486,0,0)" /></clipPath><clipPath
       clipPathUnits="userSpaceOnUse"
       id="clipPath37841"><ellipse
         style="opacity:0.353666;fill:#005900;fill-opacity:1;stroke:none;stroke-width:1.16882;stroke-dasharray:none;stroke-opacity:1"
         id="ellipse37843"
         cx="42.823051"
         cy="82.031792"
         rx="10.022449"
         ry="10.45438"
         transform="matrix(0.86607587,-0.49991258,0.34557923,0.93838958,0,0)" /></clipPath><clipPath
       clipPathUnits="userSpaceOnUse"
       id="clipPath37854"><rect
         style="opacity:0.353666;fill:#005900;fill-opacity:1;stroke:none;stroke-width:2.38537;stroke-dasharray:none;stroke-opacity:1"
         id="rect37856"
         width="16.574997"
         height="63.777107"
         x="25.000036"
         y="85.232567"
         transform="matrix(0.54187129,-0.84046148,0.85936788,0.51135784,0,0)" /></clipPath><clipPath
       clipPathUnits="userSpaceOnUse"
       id="clipPath37879"><rect
         style="opacity:0.353666;fill:#005900;fill-opacity:1;stroke:none;stroke-width:0.853184;stroke-dasharray:none;stroke-opacity:1"
         id="rect37881"
         width="17.294716"
         height="29.409994"
         x="13.320824"
         y="93.054077"
         transform="matrix(0.7495284,-0.66197219,0.91816328,0.3962022,0,0)" /></clipPath></defs><g
     inkscape:label="Layer 1"
     inkscape:groupmode="layer"
     id="layer1"><g
       inkscape:label="Layer 1"
       id="layer1-1"
       transform="matrix(1.3099295,0,0,1.1975581,70.126566,-17.394159)"><g
         id="text236"
         style="font-weight:500;font-size:13.9164px;font-family:Poppins;-inkscape-font-specification:'Poppins, Medium';text-align:center;text-anchor:middle;fill:#005900;stroke:#005900;stroke-width:1.81954"
         transform="translate(-149.32844,-69.901873)" /><rect
         style="fill:#002940;fill-opacity:1;stroke:none;stroke-width:1.79601"
         id="rect60777"
         width="242.37946"
         height="132.56142"
         x="-53.496254"
         y="14.951694" /><path
         d="m 52.755785,76.623606 c 0,0 -0.757119,-39.544095 0,-39.544095 h 28.633633 l -3.439588,3.751073 -19.652056,0.07219 v 13.295484 l 14.052254,0.0978 -3.2628,3.655809 -10.789454,0.06992 v 18.602279 z"
         id="path22108"
         sodipodi:nodetypes="ccccccccccc"
         style="font-size:22.5778px;font-family:Ubuntu;-inkscape-font-specification:'Ubuntu, Normal';text-align:center;text-anchor:middle;fill:#ffffff;fill-opacity:1;stroke:none;stroke-width:2.08129" /><path
         id="path32463"
         clip-path="url(#clipPath35541)"
         style="fill:none;stroke:#ffffff;stroke-width:1.20662;stroke-opacity:1"
         transform="matrix(2.4246238,0,0,2.4246238,-75.413699,-76.323396)"
         d="M 76.156273,54.723209 C 76.150973,62.068186 69.990934,67.53117 62.634068,68.068384 55.185792,68.612273 48.827702,62.088066 49.111862,54.723209 49.40079,47.234784 55.16596,41.378034 62.634068,41.378035 c 7.468107,0 13.527474,5.97484 13.522205,13.345174 z"
         sodipodi:nodetypes="sssss" /><path
         id="text22225"
         style="font-style:normal;font-variant:normal;font-weight:normal;font-stretch:normal;font-size:17.3341px;font-family:Tuffy;-inkscape-font-specification:'Tuffy, Normal';font-variant-ligatures:normal;font-variant-caps:normal;font-variant-numeric:normal;font-variant-east-asian:normal;text-align:center;text-anchor:middle;fill:#f7931e;fill-opacity:1;stroke:#ffa733;stroke-width:1.34329;stroke-dasharray:none;stroke-opacity:1"
         d="m 67.01571,47.427695 -4.67421,6.668184 -0.752272,1.750004 1.768537,-1.0909 9.770877,10.948466 2.139235,0.750851 -1.558761,-2.128675 -0.279676,0.193689 -9.196825,-10.745717 4.406779,-6.345902 z"
         sodipodi:nodetypes="ccccccccccc"
         clip-path="url(#clipPath37841)"
         transform="matrix(2.5436029,0,0,2.6123172,-82.5329,-84.781424)" /><path
         id="ellipse35527"
         clip-path="url(#clipPath37879)"
         style="fill:none;stroke:#ffa733;stroke-width:1.20662"
         transform="matrix(2.3856127,0.43318952,-0.43318952,2.3856127,-168.6676,-74.847968)"
         d="M 121.87313,36.292244 A 13.429893,13.345175 0 0 1 108.44324,49.637419 13.429893,13.345175 0 0 1 95.013345,36.292244 13.429893,13.345175 0 0 1 108.44324,22.947069 13.429893,13.345175 0 0 1 121.87313,36.292244 Z" /><g
         aria-label="DIGITAL"
         transform="matrix(1.7511714,0,0,1.5704431,-26.498911,-64.959838)"
         id="text49154"
         style="font-weight:500;font-size:6.7599px;line-height:0;font-family:Poppins;-inkscape-font-specification:'Poppins, Medium';text-align:center;letter-spacing:2.00473px;word-spacing:0.0105623px;text-anchor:middle;fill:#ffffff;stroke-width:0.914401;fill-opacity:1"><path
           d="m 42.319,120.52763 q 0.750349,0 1.31142,0.29068 0.567832,0.28392 0.872027,0.82471 0.310956,0.53403 0.310956,1.25058 0,0.71655 -0.310956,1.24382 -0.304195,0.52727 -0.872027,0.81119 -0.561071,0.27715 -1.31142,0.27715 h -1.534497 v -4.69813 z m 0,4.06946 q 0.824708,0 1.264101,-0.44615 0.439394,-0.44615 0.439394,-1.25734 0,-0.81795 -0.439394,-1.27762 -0.439393,-0.45967 -1.264101,-0.45967 h -0.763869 v 3.44078 z"
           style="font-size:6.7599px;fill:#ffffff;fill-opacity:1"
           id="path60647" /><path
           d="m 48.352628,120.52763 v 4.69813 h -0.770629 v -4.69813 z"
           style="font-size:6.7599px;fill:#ffffff;fill-opacity:1"
           id="path60649" /><path
           d="m 54.771572,121.87961 q -0.182517,-0.35151 -0.506993,-0.52727 -0.324475,-0.18251 -0.750349,-0.18251 -0.466433,0 -0.831467,0.20955 -0.365035,0.20956 -0.574592,0.59487 -0.202797,0.38532 -0.202797,0.89231 0,0.50699 0.202797,0.89907 0.209557,0.38531 0.574592,0.59487 0.365034,0.20955 0.831467,0.20955 0.628671,0 1.020745,-0.35151 0.392074,-0.35151 0.479953,-0.95315 h -1.764334 v -0.61515 h 2.589042 v 0.60163 q -0.07436,0.54756 -0.392074,1.00723 -0.310956,0.45967 -0.817948,0.73683 -0.500233,0.27039 -1.115384,0.27039 -0.66247,0 -1.210022,-0.30419 -0.547551,-0.31096 -0.872027,-0.85851 -0.317715,-0.54755 -0.317715,-1.23706 0,-0.68951 0.317715,-1.23706 0.324476,-0.54755 0.872027,-0.85175 0.554312,-0.31095 1.210022,-0.31095 0.750349,0 1.331701,0.37179 0.588111,0.36503 0.851747,1.04102 z"
           style="font-size:6.7599px;fill:#ffffff;fill-opacity:1"
           id="path60651" /><path
           d="m 59.372108,120.52763 v 4.69813 h -0.770629 v -4.69813 z"
           style="font-size:6.7599px;fill:#ffffff;fill-opacity:1"
           id="path60653" /><path
           d="m 65.426017,120.52763 v 0.62868 h -1.250581 v 4.06945 h -0.770629 v -4.06945 h -1.257341 v -0.62868 z"
           style="font-size:6.7599px;fill:#ffffff;fill-opacity:1"
           id="path60655" /><path
           d="m 71.040528,124.26586 h -1.96713 l -0.337995,0.9599 h -0.804428 l 1.683215,-4.70489 h 0.892306 l 1.683215,4.70489 h -0.811188 z m -0.216316,-0.62867 -0.763869,-2.18345 -0.770629,2.18345 z"
           style="font-size:6.7599px;fill:#ffffff;fill-opacity:1"
           id="path60657" /><path
           d="m 75.695144,124.60385 h 1.588576 v 0.62191 h -2.359205 v -4.69813 h 0.770629 z"
           style="font-size:6.7599px;fill:#ffffff;fill-opacity:1"
           id="path60659" /></g><g
         aria-label="Fix"
         transform="matrix(1.5856224,0,0,1.7344073,-26.498911,-64.959838)"
         id="text53253"
         style="font-weight:500;font-size:18.0264px;font-family:Poppins;-inkscape-font-specification:'Poppins, Medium';text-align:center;text-anchor:middle;fill:#ffffff;stroke-width:0.827955;fill-opacity:1"><path
           d="m 39.97198,94.241489 v 1.676455 h -5.317787 v 3.695412 h 4.146072 v 1.676454 h -4.146072 v 5.48003 h -2.05501 V 94.241489 Z"
           id="path60640"
           style="fill:#ffffff;fill-opacity:1" /><path
           d="m 42.928299,95.521363 q -0.558819,0 -0.937373,-0.378554 -0.378554,-0.378555 -0.378554,-0.937373 0,-0.558818 0.378554,-0.937373 0.378554,-0.378554 0.937373,-0.378554 0.540792,0 0.919346,0.378554 0.378555,0.378555 0.378555,0.937373 0,0.558818 -0.378555,0.937373 -0.378554,0.378554 -0.919346,0.378554 z m 1.009478,1.315927 v 9.93255 h -2.055009 v -9.93255 z"
           id="path60642"
           style="fill:#ffffff;fill-opacity:1" /><path
           d="m 50.895966,101.74047 3.208699,5.02937 H 51.77926 l -2.145142,-3.37094 -2.018956,3.37094 H 45.47002 l 3.208699,-4.88516 -3.208699,-5.04739 h 2.325406 l 2.145141,3.37094 2.018957,-3.37094 h 2.145141 z"
           id="path60644"
           style="fill:#ffffff;fill-opacity:1" /></g><g
         aria-label="Kraft"
         transform="matrix(1.5856224,0,0,1.7344073,-26.498911,-64.690804)"
         id="text53983"
         style="font-weight:500;font-size:18.0264px;font-family:Poppins;-inkscape-font-specification:'Poppins, Medium';text-align:center;text-anchor:middle;fill:#ffa733;stroke-width:0.827955"><path
           d="m 61.850128,106.70493 -4.849101,-5.60621 v 5.60621 h -2.05501 V 94.176585 h 2.05501 v 5.714369 l 4.867128,-5.714369 h 2.577775 l -5.443973,6.273185 5.534105,6.25516 z"
           id="path60629" /><path
           d="m 68.411728,98.214499 q 0.45066,-0.757109 1.189742,-1.171716 0.757109,-0.432634 1.784614,-0.432634 v 2.127116 h -0.522766 q -1.207769,0 -1.838693,0.612897 -0.612897,0.612898 -0.612897,2.127118 v 5.22765 h -2.05501 v -9.932543 h 2.05501 z"
           id="path60631" /><path
           d="m 72.593866,101.69359 q 0,-1.49619 0.612897,-2.649877 0.630924,-1.153689 1.694482,-1.784613 1.081584,-0.648951 2.379485,-0.648951 1.171716,0 2.036983,0.468687 0.883293,0.45066 1.406059,1.135663 v -1.442112 h 2.073036 v 9.932543 h -2.073036 v -1.47816 q -0.522766,0.70303 -1.424086,1.17171 -0.90132,0.46869 -2.055009,0.46869 -1.279875,0 -2.343432,-0.64895 -1.063558,-0.66698 -1.694482,-1.83869 -0.612897,-1.18974 -0.612897,-2.68594 z m 8.129906,0.0361 q 0,-1.02751 -0.432634,-1.784617 -0.414607,-0.757108 -1.09961,-1.153689 -0.685003,-0.396581 -1.478165,-0.396581 -0.793161,0 -1.478165,0.396581 -0.685003,0.378554 -1.117636,1.135663 -0.414608,0.739083 -0.414608,1.766583 0,1.02751 0.414608,1.80264 0.432633,0.77514 1.117636,1.18975 0.70303,0.39658 1.478165,0.39658 0.793162,0 1.478165,-0.39658 0.685003,-0.39658 1.09961,-1.15369 0.432634,-0.77514 0.432634,-1.80264 z"
           id="path60633" /><path
           d="m 89.664857,98.448842 h -1.838693 v 8.256088 h -2.073036 v -8.256088 h -1.171716 v -1.676455 h 1.171716 v -0.70303 q 0,-1.712508 0.90132,-2.487643 0.919346,-0.793161 2.866197,-0.793161 v 1.712508 q -0.937372,0 -1.315927,0.360528 -0.378554,0.342501 -0.378554,1.207768 v 0.70303 h 1.838693 z"
           id="path60635" /><path
           d="m 93.883049,98.448842 v 5.498048 q 0,0.55882 0.252369,0.81119 0.270396,0.23435 0.90132,0.23435 h 1.261848 v 1.7125 H 94.67621 q -1.388032,0 -2.127115,-0.64895 -0.739082,-0.64895 -0.739082,-2.10909 v -5.498048 h -1.171716 v -1.676455 h 1.171716 V 94.30277 h 2.073036 v 2.469617 h 2.415537 v 1.676455 z"
           id="path60637" /></g><path
         style="fill:#ffa733;fill-opacity:1;stroke:none;stroke-width:0.337542"
         d="m 25.213808,128.02702 v 1.72228 h 13.996979 v -1.9033 z"
         id="path57669" /><path
         style="fill:#ffa733;fill-opacity:1;stroke:none;stroke-width:0.314035"
         d="m 112.59897,127.49806 v 1.51856 h 13.74065 v -1.67817 z"
         id="path57671" /></g></g></svg>
